<svg
    width="344"
    height="87"
    viewBox="0 0 344 87"
    fill="none"
    xmlns="http://www.w3.org/2000/svg"
>
    <g clip-path="url(#clip0_232_46)">
    <path
        d="M343.848 0.133606H0.152039V86.8666H343.848V0.133606Z"
        fill="white"
    />
    <path
        d="M74.9236 68H46.4461C42.097 67.9989 37.8338 66.7859 34.133 64.4967C30.4322 62.2075 27.4396 58.9322 25.4895 55.0368C23.5395 51.1414 22.7089 46.7793 23.0905 42.4381C23.4721 38.0969 25.0508 33.9475 27.6504 30.4537C30.25 26.9598 33.7679 24.2591 37.811 22.6534C41.8542 21.0476 46.2633 20.6001 50.5457 21.3608C54.8281 22.1215 58.815 24.0604 62.0609 26.961C65.3069 29.8615 67.684 33.6094 68.9266 37.7857H74.9236C76.9035 37.7857 78.864 38.1765 80.6931 38.9357C82.5223 39.6949 84.1843 40.8077 85.5842 42.2105C86.9842 43.6133 88.0947 45.2787 88.8524 47.1116C89.61 48.9445 90 50.909 90 52.8929C90 54.8768 89.61 56.8412 88.8524 58.6741C88.0947 60.507 86.9842 62.1724 85.5842 63.5752C84.1843 64.978 82.5223 66.0908 80.6931 66.85C78.864 67.6092 76.9035 68 74.9236 68Z"
        stroke="black"
        stroke-width="5"
        stroke-linecap="round"
        stroke-linejoin="round"
    />
    <path
        d="M90 31C90 28.3849 88.947 25.877 87.0727 24.0278C85.1984 22.1787 82.6563 21.1398 80.0057 21.1398H72.6532C71.523 17.2166 69.0816 13.7855 65.7256 11.4037C62.3696 9.02191 58.296 7.82937 54.1663 8.01971C50.0367 8.21006 46.0936 9.77212 42.9772 12.4522C39.8609 15.1323 37.7545 18.7731 37 22.7832"
        stroke="black"
        stroke-width="5"
        stroke-linecap="round"
        stroke-linejoin="round"
    />
    <path
        d="M118.944 32.04H125.872L135.816 56.5541H128.266L126.731 52.3014H118.121L116.568 56.5541H109L118.944 32.04ZM120.498 46.0613H124.355L122.454 40.657H122.399L120.498 46.0613ZM144.209 47.937C144.209 48.878 144.355 49.6331 144.648 50.2026C144.953 50.7723 145.519 51.057 146.347 51.057C147.201 51.057 147.773 50.7723 148.066 50.2026C148.359 49.6331 148.505 48.878 148.505 47.937V41.307H155.597V48.6427C155.597 50.3759 155.231 51.868 154.5 53.1183C153.781 54.3685 152.733 55.3285 151.356 55.9971C149.98 56.6657 148.31 57 146.347 57C144.398 57 142.734 56.6657 141.358 55.9971C139.992 55.3285 138.944 54.3685 138.213 53.1183C137.494 51.868 137.135 50.3759 137.135 48.6427V41.307H144.209V47.937ZM164.764 56.5541H157.562V41.307H164.764V43.4799H164.673C164.806 43.2074 165.056 42.867 165.422 42.4584C165.8 42.0499 166.323 41.6845 166.994 41.3627C167.676 41.0285 168.529 40.8613 169.553 40.8613C170.235 40.8613 170.887 40.9788 171.509 41.2142C172.13 41.437 172.593 41.6599 172.898 41.8827L170.138 47.7884C169.98 47.5409 169.681 47.2931 169.242 47.0455C168.803 46.7855 168.255 46.6555 167.597 46.6555C166.89 46.6555 166.329 46.8041 165.915 47.1012C165.501 47.3859 165.202 47.7452 165.019 48.1784C164.849 48.5994 164.764 49.0141 164.764 49.4226V56.5541ZM181.708 57C180.002 57 178.485 56.6657 177.157 55.9971C175.829 55.3159 174.786 54.3754 174.031 53.1738C173.275 51.9608 172.898 50.5616 172.898 48.9769C172.898 47.3923 173.275 45.9931 174.031 44.7798C174.786 43.5542 175.829 42.5945 177.157 41.9013C178.485 41.2081 180.002 40.8613 181.708 40.8613C183.414 40.8613 184.919 41.2081 186.223 41.9013C187.527 42.5945 188.545 43.5542 189.276 44.7798C190.02 45.9931 190.391 47.3923 190.391 48.9769C190.391 50.5616 190.02 51.9608 189.276 53.1738C188.545 54.3754 187.527 55.3159 186.223 55.9971C184.919 56.6657 183.414 57 181.708 57ZM181.708 51.057C182.11 51.057 182.452 50.9766 182.732 50.8155C183.012 50.6423 183.225 50.3945 183.372 50.0726C183.53 49.7509 183.609 49.3731 183.609 48.9398C183.609 48.5066 183.53 48.1288 183.372 47.807C183.225 47.4852 183.012 47.2374 182.732 47.0641C182.452 46.8909 182.11 46.8041 181.708 46.8041C181.306 46.8041 180.959 46.8909 180.666 47.0641C180.386 47.2374 180.167 47.4852 180.008 47.807C179.85 48.1288 179.77 48.5066 179.77 48.9398C179.77 49.3731 179.85 49.7509 180.008 50.0726C180.167 50.3945 180.386 50.6423 180.666 50.8155C180.959 50.9766 181.306 51.057 181.708 51.057ZM199.252 56.5541H192.049V41.307H199.252V43.4799H199.16C199.294 43.2074 199.544 42.867 199.909 42.4584C200.287 42.0499 200.811 41.6845 201.481 41.3627C202.164 41.0285 203.017 40.8613 204.041 40.8613C204.723 40.8613 205.375 40.9788 205.997 41.2142C206.618 41.437 207.081 41.6599 207.385 41.8827L204.625 47.7884C204.467 47.5409 204.168 47.2931 203.73 47.0455C203.291 46.7855 202.743 46.6555 202.085 46.6555C201.378 46.6555 200.817 46.8041 200.403 47.1012C199.989 47.3859 199.69 47.7452 199.507 48.1784C199.337 48.5994 199.252 49.0141 199.252 49.4226V56.5541ZM219.413 56.5541V54.4183C219.291 54.641 219.017 54.9633 218.59 55.384C218.176 55.7927 217.628 56.1642 216.945 56.4985C216.275 56.8328 215.489 57 214.587 57C213.088 57 211.797 56.6222 210.712 55.8671C209.639 55.0995 208.817 54.1029 208.245 52.8767C207.672 51.6512 207.385 50.3388 207.385 48.9398C207.385 47.5409 207.672 46.2284 208.245 45.0027C208.817 43.777 209.639 42.7802 210.712 42.0127C211.797 41.2453 213.088 40.8613 214.587 40.8613C215.441 40.8613 216.183 40.9853 216.818 41.2328C217.451 41.4681 217.975 41.7588 218.39 42.1056C218.816 42.4399 219.133 42.7681 219.34 43.0899V41.307H226.506V56.5541H219.413ZM214.441 48.9398C214.441 49.3609 214.545 49.7569 214.752 50.1284C214.959 50.4998 215.246 50.7969 215.611 51.0198C215.976 51.2426 216.403 51.3541 216.891 51.3541C217.378 51.3541 217.804 51.2426 218.17 51.0198C218.536 50.7969 218.822 50.4998 219.029 50.1284C219.236 49.7569 219.34 49.3609 219.34 48.9398C219.34 48.5188 219.236 48.1227 219.029 47.7512C218.822 47.3798 218.536 47.0827 218.17 46.8598C217.804 46.6245 217.378 46.507 216.891 46.507C216.403 46.507 215.976 46.6245 215.611 46.8598C215.246 47.0827 214.959 47.3798 214.752 47.7512C214.545 48.1227 214.441 48.5188 214.441 48.9398ZM253.039 49.8684C253.891 49.8684 254.713 49.7323 255.507 49.4598C256.31 49.1873 256.932 48.9152 257.373 48.6427L260.388 54.7343C259.803 55.2295 258.809 55.7309 257.407 56.2381C256.007 56.7458 254.356 57 252.454 57C250.675 57 248.992 56.6903 247.41 56.0709C245.825 55.4395 244.417 54.5545 243.186 53.4154C241.967 52.2768 241.013 50.9394 240.316 49.4041C239.622 47.8566 239.276 46.1666 239.276 44.3341C239.276 42.5017 239.622 40.8117 240.316 39.2642C241.013 37.7042 241.967 36.3546 243.186 35.2157C244.406 34.0643 245.805 33.1729 247.39 32.5414C248.987 31.91 250.675 31.5942 252.454 31.5942C254.356 31.5942 256.007 31.8482 257.407 32.3557C258.809 32.8632 259.803 33.3646 260.388 33.86L257.373 39.9513C256.932 39.6788 256.31 39.4067 255.507 39.1342C254.713 38.8617 253.891 38.7256 253.039 38.7256C251.88 38.7256 250.912 38.8928 250.132 39.2271C249.352 39.5613 248.724 40.0071 248.25 40.5642C247.788 41.1088 247.45 41.7095 247.244 42.3656C247.05 43.0095 246.953 43.647 246.953 44.2784C246.953 44.9223 247.05 45.5723 247.244 46.2284C247.45 46.8845 247.788 47.4912 248.25 48.0484C248.724 48.5931 249.352 49.0327 250.132 49.3669C250.912 49.7012 251.88 49.8684 253.039 49.8684ZM270.616 56.5541H263.416V31H270.616V56.5541ZM281.638 57C279.93 57 278.413 56.6657 277.085 55.9971C275.757 55.3159 274.715 54.3754 273.961 53.1738C273.204 51.9608 272.827 50.5616 272.827 48.9769C272.827 47.3923 273.204 45.9931 273.961 44.7798C274.715 43.5542 275.757 42.5945 277.085 41.9013C278.413 41.2081 279.93 40.8613 281.638 40.8613C283.343 40.8613 284.848 41.2081 286.151 41.9013C287.456 42.5945 288.473 43.5542 289.204 44.7798C289.947 45.9931 290.321 47.3923 290.321 48.9769C290.321 50.5616 289.947 51.9608 289.204 53.1738C288.473 54.3754 287.456 55.3159 286.151 55.9971C284.848 56.6657 283.343 57 281.638 57ZM281.638 51.057C282.038 51.057 282.381 50.9766 282.661 50.8155C282.941 50.6423 283.155 50.3945 283.3 50.0726C283.457 49.7509 283.538 49.3731 283.538 48.9398C283.538 48.5066 283.457 48.1288 283.3 47.807C283.155 47.4852 282.941 47.2374 282.661 47.0641C282.381 46.8909 282.038 46.8041 281.638 46.8041C281.235 46.8041 280.887 46.8909 280.595 47.0641C280.315 47.2374 280.096 47.4852 279.936 47.807C279.778 48.1288 279.699 48.5066 279.699 48.9398C279.699 49.3731 279.778 49.7509 279.936 50.0726C280.096 50.3945 280.315 50.6423 280.595 50.8155C280.887 50.9766 281.235 51.057 281.638 51.057ZM299.583 47.937C299.583 48.878 299.729 49.6331 300.02 50.2026C300.326 50.7723 300.891 51.057 301.722 51.057C302.573 51.057 303.147 50.7723 303.439 50.2026C303.733 49.6331 303.879 48.878 303.879 47.937V41.307H310.97V48.6427C310.97 50.3759 310.605 51.868 309.874 53.1183C309.154 54.3685 308.106 55.3285 306.729 55.9971C305.353 56.6657 303.682 57 301.722 57C299.772 57 298.106 56.6657 296.73 55.9971C295.364 55.3285 294.319 54.3685 293.588 53.1183C292.869 51.868 292.508 50.3759 292.508 48.6427V41.307H299.583V47.937ZM320.01 57C318.511 57 317.231 56.6222 316.171 55.8671C315.109 55.0995 314.295 54.1029 313.721 52.8767C313.161 51.6512 312.881 50.3388 312.881 48.9398C312.881 47.5409 313.161 46.2284 313.721 45.0027C314.295 43.777 315.109 42.7802 316.171 42.0127C317.231 41.2453 318.511 40.8613 320.01 40.8613C320.875 40.8613 321.641 40.9853 322.312 41.2328C322.995 41.4681 323.549 41.7588 323.975 42.1056C324.414 42.4399 324.7 42.7681 324.834 43.0899V31H332V56.5541H324.888V54.4183C324.571 54.9135 324.152 55.3594 323.629 55.7555C323.118 56.1396 322.549 56.4424 321.929 56.6657C321.307 56.8884 320.667 57 320.01 57ZM322.386 51.3541C322.872 51.3541 323.3 51.2426 323.666 51.0198C324.031 50.7969 324.317 50.4998 324.523 50.1284C324.731 49.7569 324.834 49.3609 324.834 48.9398C324.834 48.5188 324.731 48.1227 324.523 47.7512C324.317 47.3798 324.031 47.0827 323.666 46.8598C323.3 46.6245 322.872 46.507 322.386 46.507C321.898 46.507 321.464 46.6245 321.087 46.8598C320.721 47.0827 320.436 47.3798 320.227 47.7512C320.021 48.1227 319.919 48.5188 319.919 48.9398C319.919 49.3609 320.021 49.7569 320.227 50.1284C320.436 50.4998 320.721 50.7969 321.087 51.0198C321.464 51.2426 321.898 51.3541 322.386 51.3541Z"
        fill="#010101"
    />
    </g>
    <defs>
    <clipPath id="clip0_232_46">
        <rect width="344" height="87" fill="white" />
    </clipPath>
    </defs>
</svg>